<mxfile host="app.diagrams.net" modified="2021-08-27T03:51:08.067Z" agent="5.0 (X11; Linux x86_64) AppleWebKit/537.36 (KHTML, like Gecko) Chrome/92.0.4515.159 Safari/537.36" etag="2tfWzm7QCb7ROyTfO11I" version="15.0.2" type="github">
  <diagram id="ugYrSLIgE04G1so74HWy" name="第1頁">
    <mxGraphModel dx="1240" dy="650" grid="1" gridSize="10" guides="1" tooltips="1" connect="1" arrows="1" fold="1" page="1" pageScale="1" pageWidth="827" pageHeight="1169" math="0" shadow="0">
      <root>
        <mxCell id="0" />
        <mxCell id="1" parent="0" />
        <mxCell id="qKp2t6b-wAt60eH7Q8AS-2" value="程式開始" style="rounded=1;whiteSpace=wrap;html=1;" vertex="1" parent="1">
          <mxGeometry x="80" y="40" width="150" height="80" as="geometry" />
        </mxCell>
        <mxCell id="qKp2t6b-wAt60eH7Q8AS-3" style="edgeStyle=orthogonalEdgeStyle;rounded=0;orthogonalLoop=1;jettySize=auto;html=1;exitX=0.5;exitY=1;exitDx=0;exitDy=0;entryX=0.5;entryY=0;entryDx=0;entryDy=0;" edge="1" parent="1" source="qKp2t6b-wAt60eH7Q8AS-2" target="qKp2t6b-wAt60eH7Q8AS-6">
          <mxGeometry relative="1" as="geometry">
            <mxPoint x="155" y="240" as="sourcePoint" />
          </mxGeometry>
        </mxCell>
        <mxCell id="qKp2t6b-wAt60eH7Q8AS-36" style="edgeStyle=orthogonalEdgeStyle;rounded=0;orthogonalLoop=1;jettySize=auto;html=1;exitX=0.5;exitY=1;exitDx=0;exitDy=0;entryX=0.5;entryY=0;entryDx=0;entryDy=0;" edge="1" parent="1" source="qKp2t6b-wAt60eH7Q8AS-6" target="qKp2t6b-wAt60eH7Q8AS-8">
          <mxGeometry relative="1" as="geometry" />
        </mxCell>
        <mxCell id="qKp2t6b-wAt60eH7Q8AS-6" value="&lt;div style=&quot;font-family: &amp;#34;droid sans mono&amp;#34; , monospace , monospace , &amp;#34;droid sans fallback&amp;#34; ; line-height: 19px&quot;&gt;&lt;span style=&quot;background-color: rgb(255 , 255 , 255)&quot;&gt;&lt;font style=&quot;font-size: 12px&quot;&gt;按Enter開始遊戲，&lt;/font&gt;&lt;/span&gt;&lt;/div&gt;&lt;div style=&quot;font-family: &amp;#34;droid sans mono&amp;#34; , monospace , monospace , &amp;#34;droid sans fallback&amp;#34; ; line-height: 19px&quot;&gt;&lt;span style=&quot;background-color: rgb(255 , 255 , 255)&quot;&gt;&lt;font style=&quot;font-size: 12px&quot;&gt;或輸入0結束遊戲！&lt;/font&gt;&lt;/span&gt;&lt;/div&gt;" style="shape=parallelogram;perimeter=parallelogramPerimeter;whiteSpace=wrap;html=1;fixedSize=1;" vertex="1" parent="1">
          <mxGeometry x="80" y="160" width="150" height="80" as="geometry" />
        </mxCell>
        <mxCell id="qKp2t6b-wAt60eH7Q8AS-8" value="判斷是否輸入0" style="rhombus;whiteSpace=wrap;html=1;" vertex="1" parent="1">
          <mxGeometry x="80" y="280" width="150" height="80" as="geometry" />
        </mxCell>
        <mxCell id="qKp2t6b-wAt60eH7Q8AS-79" style="edgeStyle=orthogonalEdgeStyle;rounded=0;orthogonalLoop=1;jettySize=auto;html=1;exitX=0.5;exitY=1;exitDx=0;exitDy=0;entryX=0.5;entryY=0;entryDx=0;entryDy=0;" edge="1" parent="1" source="qKp2t6b-wAt60eH7Q8AS-10" target="qKp2t6b-wAt60eH7Q8AS-42">
          <mxGeometry relative="1" as="geometry" />
        </mxCell>
        <mxCell id="qKp2t6b-wAt60eH7Q8AS-10" value="&lt;div style=&quot;font-family: &amp;#34;droid sans mono&amp;#34; , monospace , monospace , &amp;#34;droid sans fallback&amp;#34; ; line-height: 19px&quot;&gt;&lt;span style=&quot;background-color: rgb(255 , 255 , 255)&quot;&gt;&lt;font style=&quot;font-size: 12px&quot;&gt;考考你猜數字遊戲，&lt;/font&gt;&lt;/span&gt;&lt;span style=&quot;background-color: rgb(255 , 255 , 255)&quot;&gt;請&lt;/span&gt;&lt;/div&gt;&lt;div style=&quot;font-family: &amp;#34;droid sans mono&amp;#34; , monospace , monospace , &amp;#34;droid sans fallback&amp;#34; ; line-height: 19px&quot;&gt;&lt;span style=&quot;background-color: rgb(255 , 255 , 255)&quot;&gt;輸&lt;/span&gt;&lt;span style=&quot;background-color: rgb(255 , 255 , 255)&quot;&gt;入介於1~100的數字：&lt;/span&gt;&lt;/div&gt;" style="shape=parallelogram;perimeter=parallelogramPerimeter;whiteSpace=wrap;html=1;fixedSize=1;" vertex="1" parent="1">
          <mxGeometry x="80" y="640" width="150" height="80" as="geometry" />
        </mxCell>
        <mxCell id="qKp2t6b-wAt60eH7Q8AS-45" style="edgeStyle=orthogonalEdgeStyle;rounded=0;orthogonalLoop=1;jettySize=auto;html=1;exitX=1;exitY=0.5;exitDx=0;exitDy=0;entryX=0;entryY=0.5;entryDx=0;entryDy=0;" edge="1" parent="1" source="qKp2t6b-wAt60eH7Q8AS-14" target="qKp2t6b-wAt60eH7Q8AS-28">
          <mxGeometry relative="1" as="geometry" />
        </mxCell>
        <mxCell id="qKp2t6b-wAt60eH7Q8AS-57" style="edgeStyle=orthogonalEdgeStyle;rounded=0;orthogonalLoop=1;jettySize=auto;html=1;exitX=0.5;exitY=1;exitDx=0;exitDy=0;entryX=0.5;entryY=0;entryDx=0;entryDy=0;" edge="1" parent="1" source="qKp2t6b-wAt60eH7Q8AS-14" target="qKp2t6b-wAt60eH7Q8AS-50">
          <mxGeometry relative="1" as="geometry" />
        </mxCell>
        <mxCell id="qKp2t6b-wAt60eH7Q8AS-14" value="判斷是否等於正確數字" style="rhombus;whiteSpace=wrap;html=1;" vertex="1" parent="1">
          <mxGeometry x="80" y="880" width="150" height="80" as="geometry" />
        </mxCell>
        <mxCell id="qKp2t6b-wAt60eH7Q8AS-48" style="edgeStyle=orthogonalEdgeStyle;rounded=0;orthogonalLoop=1;jettySize=auto;html=1;exitX=1;exitY=0.5;exitDx=0;exitDy=0;entryX=0;entryY=0.5;entryDx=0;entryDy=0;" edge="1" parent="1" source="qKp2t6b-wAt60eH7Q8AS-17" target="qKp2t6b-wAt60eH7Q8AS-40">
          <mxGeometry relative="1" as="geometry" />
        </mxCell>
        <mxCell id="qKp2t6b-wAt60eH7Q8AS-68" style="edgeStyle=orthogonalEdgeStyle;rounded=0;orthogonalLoop=1;jettySize=auto;html=1;exitX=0.5;exitY=1;exitDx=0;exitDy=0;entryX=0.5;entryY=0;entryDx=0;entryDy=0;" edge="1" parent="1" source="qKp2t6b-wAt60eH7Q8AS-17" target="qKp2t6b-wAt60eH7Q8AS-64">
          <mxGeometry relative="1" as="geometry" />
        </mxCell>
        <mxCell id="qKp2t6b-wAt60eH7Q8AS-17" value="判斷是否大於正確數字" style="rhombus;whiteSpace=wrap;html=1;" vertex="1" parent="1">
          <mxGeometry x="650" y="880" width="150" height="80" as="geometry" />
        </mxCell>
        <mxCell id="qKp2t6b-wAt60eH7Q8AS-77" style="edgeStyle=orthogonalEdgeStyle;rounded=0;orthogonalLoop=1;jettySize=auto;html=1;exitX=0.5;exitY=1;exitDx=0;exitDy=0;entryX=0.5;entryY=0;entryDx=0;entryDy=0;" edge="1" parent="1" source="qKp2t6b-wAt60eH7Q8AS-21" target="qKp2t6b-wAt60eH7Q8AS-33">
          <mxGeometry relative="1" as="geometry" />
        </mxCell>
        <mxCell id="qKp2t6b-wAt60eH7Q8AS-21" value="&lt;span style=&quot;text-align: left ; background-color: rgb(247 , 247 , 249) ; font-size: 11px&quot;&gt;恭喜，你答對了！&lt;/span&gt;" style="shape=parallelogram;perimeter=parallelogramPerimeter;whiteSpace=wrap;html=1;fixedSize=1;" vertex="1" parent="1">
          <mxGeometry x="80" y="1240" width="150" height="80" as="geometry" />
        </mxCell>
        <mxCell id="qKp2t6b-wAt60eH7Q8AS-23" value="&lt;span style=&quot;font-family: , &amp;#34;menlo&amp;#34; , &amp;#34;monaco&amp;#34; , &amp;#34;consolas&amp;#34; , &amp;#34;liberation mono&amp;#34; , &amp;#34;courier new&amp;#34; , monospace ; text-align: left ; background-color: rgb(247 , 247 , 249)&quot;&gt;&lt;font style=&quot;font-size: 11px&quot;&gt;答案比較大喔&lt;/font&gt;&lt;/span&gt;" style="shape=parallelogram;perimeter=parallelogramPerimeter;whiteSpace=wrap;html=1;fixedSize=1;" vertex="1" parent="1">
          <mxGeometry x="40" y="1714" width="150" height="80" as="geometry" />
        </mxCell>
        <mxCell id="qKp2t6b-wAt60eH7Q8AS-25" value="&lt;span style=&quot;font-family: , &amp;#34;menlo&amp;#34; , &amp;#34;monaco&amp;#34; , &amp;#34;consolas&amp;#34; , &amp;#34;liberation mono&amp;#34; , &amp;#34;courier new&amp;#34; , monospace ; text-align: left ; background-color: rgb(247 , 247 , 249)&quot;&gt;&lt;font style=&quot;font-size: 11px&quot;&gt;答案比較小喔&lt;/font&gt;&lt;/span&gt;" style="shape=parallelogram;perimeter=parallelogramPerimeter;whiteSpace=wrap;html=1;fixedSize=1;" vertex="1" parent="1">
          <mxGeometry x="230" y="1714" width="150" height="80" as="geometry" />
        </mxCell>
        <mxCell id="qKp2t6b-wAt60eH7Q8AS-46" style="edgeStyle=orthogonalEdgeStyle;rounded=0;orthogonalLoop=1;jettySize=auto;html=1;exitX=1;exitY=0.5;exitDx=0;exitDy=0;entryX=0;entryY=0.5;entryDx=0;entryDy=0;" edge="1" parent="1" source="qKp2t6b-wAt60eH7Q8AS-28" target="qKp2t6b-wAt60eH7Q8AS-43">
          <mxGeometry relative="1" as="geometry" />
        </mxCell>
        <mxCell id="qKp2t6b-wAt60eH7Q8AS-78" style="edgeStyle=orthogonalEdgeStyle;rounded=0;orthogonalLoop=1;jettySize=auto;html=1;exitX=0.5;exitY=1;exitDx=0;exitDy=0;entryX=1;entryY=0.5;entryDx=0;entryDy=0;" edge="1" parent="1" source="qKp2t6b-wAt60eH7Q8AS-28" target="qKp2t6b-wAt60eH7Q8AS-33">
          <mxGeometry relative="1" as="geometry" />
        </mxCell>
        <mxCell id="qKp2t6b-wAt60eH7Q8AS-28" value="判斷是否輸入0" style="rhombus;whiteSpace=wrap;html=1;" vertex="1" parent="1">
          <mxGeometry x="270" y="880" width="150" height="80" as="geometry" />
        </mxCell>
        <mxCell id="qKp2t6b-wAt60eH7Q8AS-30" value="&lt;span style=&quot;font-family: , &amp;#34;menlo&amp;#34; , &amp;#34;monaco&amp;#34; , &amp;#34;consolas&amp;#34; , &amp;#34;liberation mono&amp;#34; , &amp;#34;courier new&amp;#34; , monospace ; text-align: left ; background-color: rgb(247 , 247 , 249)&quot;&gt;&lt;font style=&quot;font-size: 11px&quot;&gt;答案比較小喔&lt;/font&gt;&lt;/span&gt;" style="shape=parallelogram;perimeter=parallelogramPerimeter;whiteSpace=wrap;html=1;fixedSize=1;" vertex="1" parent="1">
          <mxGeometry x="430" y="1714" width="150" height="80" as="geometry" />
        </mxCell>
        <mxCell id="qKp2t6b-wAt60eH7Q8AS-33" value="程式結束" style="rounded=1;whiteSpace=wrap;html=1;" vertex="1" parent="1">
          <mxGeometry x="80" y="1360" width="150" height="80" as="geometry" />
        </mxCell>
        <mxCell id="qKp2t6b-wAt60eH7Q8AS-38" value="從1至100範圍內&lt;br&gt;隨機取得一整數" style="rounded=0;whiteSpace=wrap;html=1;" vertex="1" parent="1">
          <mxGeometry x="80" y="520" width="150" height="80" as="geometry" />
        </mxCell>
        <mxCell id="qKp2t6b-wAt60eH7Q8AS-39" value="設定最小數為1&lt;br&gt;最大數為100" style="rounded=0;whiteSpace=wrap;html=1;" vertex="1" parent="1">
          <mxGeometry x="80" y="400" width="150" height="80" as="geometry" />
        </mxCell>
        <mxCell id="qKp2t6b-wAt60eH7Q8AS-69" style="edgeStyle=orthogonalEdgeStyle;rounded=0;orthogonalLoop=1;jettySize=auto;html=1;exitX=0.5;exitY=1;exitDx=0;exitDy=0;entryX=0.5;entryY=0;entryDx=0;entryDy=0;" edge="1" parent="1" source="qKp2t6b-wAt60eH7Q8AS-40" target="qKp2t6b-wAt60eH7Q8AS-65">
          <mxGeometry relative="1" as="geometry" />
        </mxCell>
        <mxCell id="qKp2t6b-wAt60eH7Q8AS-92" style="edgeStyle=orthogonalEdgeStyle;rounded=0;orthogonalLoop=1;jettySize=auto;html=1;exitX=1;exitY=0.5;exitDx=0;exitDy=0;" edge="1" parent="1" source="qKp2t6b-wAt60eH7Q8AS-40">
          <mxGeometry relative="1" as="geometry">
            <mxPoint x="1040" y="920.2941176470588" as="targetPoint" />
          </mxGeometry>
        </mxCell>
        <mxCell id="qKp2t6b-wAt60eH7Q8AS-40" value="判斷是否小於正確數字" style="rhombus;whiteSpace=wrap;html=1;" vertex="1" parent="1">
          <mxGeometry x="840" y="880" width="150" height="80" as="geometry" />
        </mxCell>
        <mxCell id="qKp2t6b-wAt60eH7Q8AS-44" style="edgeStyle=orthogonalEdgeStyle;rounded=0;orthogonalLoop=1;jettySize=auto;html=1;exitX=0.5;exitY=1;exitDx=0;exitDy=0;entryX=0.5;entryY=0;entryDx=0;entryDy=0;" edge="1" parent="1" source="qKp2t6b-wAt60eH7Q8AS-42" target="qKp2t6b-wAt60eH7Q8AS-14">
          <mxGeometry relative="1" as="geometry" />
        </mxCell>
        <mxCell id="qKp2t6b-wAt60eH7Q8AS-42" value="標記開始時間" style="rounded=0;whiteSpace=wrap;html=1;" vertex="1" parent="1">
          <mxGeometry x="80" y="760" width="150" height="80" as="geometry" />
        </mxCell>
        <mxCell id="qKp2t6b-wAt60eH7Q8AS-47" style="edgeStyle=orthogonalEdgeStyle;rounded=0;orthogonalLoop=1;jettySize=auto;html=1;exitX=1;exitY=0.5;exitDx=0;exitDy=0;entryX=0;entryY=0.5;entryDx=0;entryDy=0;" edge="1" parent="1" source="qKp2t6b-wAt60eH7Q8AS-43" target="qKp2t6b-wAt60eH7Q8AS-17">
          <mxGeometry relative="1" as="geometry" />
        </mxCell>
        <mxCell id="qKp2t6b-wAt60eH7Q8AS-101" style="edgeStyle=orthogonalEdgeStyle;rounded=0;orthogonalLoop=1;jettySize=auto;html=1;exitX=0.5;exitY=1;exitDx=0;exitDy=0;entryX=0.5;entryY=0;entryDx=0;entryDy=0;" edge="1" parent="1" source="qKp2t6b-wAt60eH7Q8AS-43" target="qKp2t6b-wAt60eH7Q8AS-63">
          <mxGeometry relative="1" as="geometry" />
        </mxCell>
        <mxCell id="qKp2t6b-wAt60eH7Q8AS-43" value="判斷是否輸入負數" style="rhombus;whiteSpace=wrap;html=1;" vertex="1" parent="1">
          <mxGeometry x="460" y="880" width="150" height="80" as="geometry" />
        </mxCell>
        <mxCell id="qKp2t6b-wAt60eH7Q8AS-76" style="edgeStyle=orthogonalEdgeStyle;rounded=0;orthogonalLoop=1;jettySize=auto;html=1;exitX=0.5;exitY=1;exitDx=0;exitDy=0;entryX=0.5;entryY=0;entryDx=0;entryDy=0;" edge="1" parent="1" source="qKp2t6b-wAt60eH7Q8AS-49" target="qKp2t6b-wAt60eH7Q8AS-21">
          <mxGeometry relative="1" as="geometry" />
        </mxCell>
        <mxCell id="qKp2t6b-wAt60eH7Q8AS-49" value="標記結束時間" style="rounded=0;whiteSpace=wrap;html=1;" vertex="1" parent="1">
          <mxGeometry x="80" y="1120" width="150" height="80" as="geometry" />
        </mxCell>
        <mxCell id="qKp2t6b-wAt60eH7Q8AS-58" style="edgeStyle=orthogonalEdgeStyle;rounded=0;orthogonalLoop=1;jettySize=auto;html=1;exitX=0.5;exitY=1;exitDx=0;exitDy=0;entryX=0.5;entryY=0;entryDx=0;entryDy=0;" edge="1" parent="1" source="qKp2t6b-wAt60eH7Q8AS-50" target="qKp2t6b-wAt60eH7Q8AS-49">
          <mxGeometry relative="1" as="geometry" />
        </mxCell>
        <mxCell id="qKp2t6b-wAt60eH7Q8AS-50" value="紀錄輸入次數加1" style="rounded=0;whiteSpace=wrap;html=1;" vertex="1" parent="1">
          <mxGeometry x="80" y="1000" width="150" height="80" as="geometry" />
        </mxCell>
        <mxCell id="qKp2t6b-wAt60eH7Q8AS-51" value="紀錄輸入次數加1" style="rounded=0;whiteSpace=wrap;html=1;" vertex="1" parent="1">
          <mxGeometry x="460" y="1120" width="150" height="80" as="geometry" />
        </mxCell>
        <mxCell id="qKp2t6b-wAt60eH7Q8AS-86" style="edgeStyle=orthogonalEdgeStyle;rounded=0;orthogonalLoop=1;jettySize=auto;html=1;exitX=0.5;exitY=1;exitDx=0;exitDy=0;" edge="1" parent="1" source="qKp2t6b-wAt60eH7Q8AS-52">
          <mxGeometry relative="1" as="geometry">
            <mxPoint x="724.8823529411766" y="1280" as="targetPoint" />
          </mxGeometry>
        </mxCell>
        <mxCell id="qKp2t6b-wAt60eH7Q8AS-52" value="紀錄輸入次數加1" style="rounded=0;whiteSpace=wrap;html=1;" vertex="1" parent="1">
          <mxGeometry x="650" y="1120" width="150" height="80" as="geometry" />
        </mxCell>
        <mxCell id="qKp2t6b-wAt60eH7Q8AS-87" style="edgeStyle=orthogonalEdgeStyle;rounded=0;orthogonalLoop=1;jettySize=auto;html=1;exitX=0.5;exitY=1;exitDx=0;exitDy=0;" edge="1" parent="1" source="qKp2t6b-wAt60eH7Q8AS-53">
          <mxGeometry relative="1" as="geometry">
            <mxPoint x="915.4705882352941" y="1280" as="targetPoint" />
          </mxGeometry>
        </mxCell>
        <mxCell id="qKp2t6b-wAt60eH7Q8AS-53" value="紀錄輸入次數加1" style="rounded=0;whiteSpace=wrap;html=1;" vertex="1" parent="1">
          <mxGeometry x="840" y="1120" width="150" height="80" as="geometry" />
        </mxCell>
        <mxCell id="qKp2t6b-wAt60eH7Q8AS-71" style="edgeStyle=orthogonalEdgeStyle;rounded=0;orthogonalLoop=1;jettySize=auto;html=1;exitX=0.5;exitY=1;exitDx=0;exitDy=0;entryX=0.5;entryY=0;entryDx=0;entryDy=0;" edge="1" parent="1" source="qKp2t6b-wAt60eH7Q8AS-63" target="qKp2t6b-wAt60eH7Q8AS-51">
          <mxGeometry relative="1" as="geometry" />
        </mxCell>
        <mxCell id="qKp2t6b-wAt60eH7Q8AS-63" value="&lt;div style=&quot;font-family: &amp;#34;droid sans mono&amp;#34; , monospace , monospace , &amp;#34;droid sans fallback&amp;#34; ; line-height: 19px&quot;&gt;&lt;span style=&quot;background-color: rgb(255 , 255 , 255)&quot;&gt;請由最小數&lt;/span&gt;&lt;span style=&quot;background-color: rgb(255 , 255 , 255)&quot;&gt;~&lt;/span&gt;&lt;/div&gt;&lt;div style=&quot;font-family: &amp;#34;droid sans mono&amp;#34; , monospace , monospace , &amp;#34;droid sans fallback&amp;#34; ; line-height: 19px&quot;&gt;&lt;span style=&quot;background-color: rgb(255 , 255 , 255)&quot;&gt;最大數猜一個數字：&lt;/span&gt;&lt;/div&gt;" style="shape=parallelogram;perimeter=parallelogramPerimeter;whiteSpace=wrap;html=1;fixedSize=1;" vertex="1" parent="1">
          <mxGeometry x="460" y="1000" width="150" height="80" as="geometry" />
        </mxCell>
        <mxCell id="qKp2t6b-wAt60eH7Q8AS-72" style="edgeStyle=orthogonalEdgeStyle;rounded=0;orthogonalLoop=1;jettySize=auto;html=1;exitX=0.5;exitY=1;exitDx=0;exitDy=0;entryX=0.5;entryY=0;entryDx=0;entryDy=0;" edge="1" parent="1" source="qKp2t6b-wAt60eH7Q8AS-64" target="qKp2t6b-wAt60eH7Q8AS-52">
          <mxGeometry relative="1" as="geometry" />
        </mxCell>
        <mxCell id="qKp2t6b-wAt60eH7Q8AS-64" value="&lt;div style=&quot;font-family: &amp;#34;droid sans mono&amp;#34; , monospace , monospace , &amp;#34;droid sans fallback&amp;#34; ; line-height: 19px&quot;&gt;&lt;div style=&quot;font-family: &amp;#34;droid sans mono&amp;#34; , monospace , monospace , &amp;#34;droid sans fallback&amp;#34; ; font-size: 14px ; line-height: 19px&quot;&gt;&lt;span style=&quot;background-color: rgb(255 , 255 , 255)&quot;&gt;答案比較大喔！&lt;/span&gt;&lt;/div&gt;&lt;div style=&quot;font-family: &amp;#34;droid sans mono&amp;#34; , monospace , monospace , &amp;#34;droid sans fallback&amp;#34; ; font-size: 14px ; line-height: 19px&quot;&gt;&lt;span style=&quot;background-color: rgb(255 , 255 , 255)&quot;&gt;請由&lt;/span&gt;&lt;span style=&quot;font-size: 12px ; background-color: rgb(255 , 255 , 255)&quot;&gt;最小數&lt;/span&gt;&lt;span style=&quot;font-size: 12px ; background-color: rgb(255 , 255 , 255)&quot;&gt;~&lt;/span&gt;&lt;span style=&quot;background-color: rgb(255 , 255 , 255) ; font-size: 12px&quot;&gt;最大數&lt;/span&gt;&lt;/div&gt;&lt;div style=&quot;font-family: &amp;#34;droid sans mono&amp;#34; , monospace , monospace , &amp;#34;droid sans fallback&amp;#34; ; font-size: 14px ; line-height: 19px&quot;&gt;&lt;span style=&quot;background-color: rgb(255 , 255 , 255)&quot;&gt;猜一個數字：&lt;/span&gt;&lt;/div&gt;&lt;/div&gt;" style="shape=parallelogram;perimeter=parallelogramPerimeter;whiteSpace=wrap;html=1;fixedSize=1;" vertex="1" parent="1">
          <mxGeometry x="650" y="1000" width="150" height="80" as="geometry" />
        </mxCell>
        <mxCell id="qKp2t6b-wAt60eH7Q8AS-73" style="edgeStyle=orthogonalEdgeStyle;rounded=0;orthogonalLoop=1;jettySize=auto;html=1;exitX=0.5;exitY=1;exitDx=0;exitDy=0;entryX=0.5;entryY=0;entryDx=0;entryDy=0;" edge="1" parent="1" source="qKp2t6b-wAt60eH7Q8AS-65" target="qKp2t6b-wAt60eH7Q8AS-53">
          <mxGeometry relative="1" as="geometry" />
        </mxCell>
        <mxCell id="qKp2t6b-wAt60eH7Q8AS-65" value="&lt;div style=&quot;font-family: &amp;#34;droid sans mono&amp;#34; , monospace , monospace , &amp;#34;droid sans fallback&amp;#34; ; line-height: 19px&quot;&gt;&lt;div style=&quot;font-family: &amp;#34;droid sans mono&amp;#34; , monospace , monospace , &amp;#34;droid sans fallback&amp;#34; ; font-size: 14px ; line-height: 19px&quot;&gt;&lt;span style=&quot;background-color: rgb(255 , 255 , 255)&quot;&gt;答案比較小喔！&lt;/span&gt;&lt;/div&gt;&lt;div style=&quot;font-family: &amp;#34;droid sans mono&amp;#34; , monospace , monospace , &amp;#34;droid sans fallback&amp;#34; ; font-size: 14px ; line-height: 19px&quot;&gt;&lt;span style=&quot;background-color: rgb(255 , 255 , 255)&quot;&gt;請由&lt;/span&gt;&lt;span style=&quot;font-size: 12px ; background-color: rgb(255 , 255 , 255)&quot;&gt;最小數&lt;/span&gt;&lt;span style=&quot;font-size: 12px ; background-color: rgb(255 , 255 , 255)&quot;&gt;~&lt;/span&gt;&lt;span style=&quot;background-color: rgb(255 , 255 , 255) ; font-size: 12px&quot;&gt;最大數&lt;/span&gt;&lt;/div&gt;&lt;div style=&quot;font-size: 14px ; line-height: 19px&quot;&gt;&lt;span style=&quot;background-color: rgb(255 , 255 , 255)&quot;&gt;猜一個數字：&lt;/span&gt;&lt;/div&gt;&lt;/div&gt;" style="shape=parallelogram;perimeter=parallelogramPerimeter;whiteSpace=wrap;html=1;fixedSize=1;" vertex="1" parent="1">
          <mxGeometry x="840" y="1000" width="150" height="80" as="geometry" />
        </mxCell>
        <mxCell id="qKp2t6b-wAt60eH7Q8AS-82" value="" style="endArrow=none;html=1;" edge="1" parent="1">
          <mxGeometry width="50" height="50" relative="1" as="geometry">
            <mxPoint x="535" y="1279.58" as="sourcePoint" />
            <mxPoint x="1040" y="1280" as="targetPoint" />
          </mxGeometry>
        </mxCell>
        <mxCell id="qKp2t6b-wAt60eH7Q8AS-83" value="" style="endArrow=none;html=1;exitX=0.5;exitY=1;exitDx=0;exitDy=0;" edge="1" parent="1" source="qKp2t6b-wAt60eH7Q8AS-51">
          <mxGeometry width="50" height="50" relative="1" as="geometry">
            <mxPoint x="470" y="1240" as="sourcePoint" />
            <mxPoint x="535" y="1280" as="targetPoint" />
          </mxGeometry>
        </mxCell>
        <mxCell id="qKp2t6b-wAt60eH7Q8AS-84" value="" style="endArrow=none;html=1;" edge="1" parent="1">
          <mxGeometry width="50" height="50" relative="1" as="geometry">
            <mxPoint x="1040" y="860" as="sourcePoint" />
            <mxPoint x="1040" y="1280" as="targetPoint" />
          </mxGeometry>
        </mxCell>
        <mxCell id="qKp2t6b-wAt60eH7Q8AS-85" value="" style="endArrow=classic;html=1;" edge="1" parent="1">
          <mxGeometry width="50" height="50" relative="1" as="geometry">
            <mxPoint x="1040" y="860" as="sourcePoint" />
            <mxPoint x="155" y="860" as="targetPoint" />
          </mxGeometry>
        </mxCell>
        <mxCell id="qKp2t6b-wAt60eH7Q8AS-88" value="是" style="text;html=1;strokeColor=none;fillColor=none;align=center;verticalAlign=middle;whiteSpace=wrap;rounded=0;" vertex="1" parent="1">
          <mxGeometry x="150" y="960" width="40" height="20" as="geometry" />
        </mxCell>
        <mxCell id="qKp2t6b-wAt60eH7Q8AS-89" value="否" style="text;html=1;strokeColor=none;fillColor=none;align=center;verticalAlign=middle;whiteSpace=wrap;rounded=0;" vertex="1" parent="1">
          <mxGeometry x="420" y="900" width="40" height="20" as="geometry" />
        </mxCell>
        <mxCell id="qKp2t6b-wAt60eH7Q8AS-90" value="否" style="text;html=1;strokeColor=none;fillColor=none;align=center;verticalAlign=middle;whiteSpace=wrap;rounded=0;" vertex="1" parent="1">
          <mxGeometry x="610" y="900" width="40" height="20" as="geometry" />
        </mxCell>
        <mxCell id="qKp2t6b-wAt60eH7Q8AS-91" value="否" style="text;html=1;strokeColor=none;fillColor=none;align=center;verticalAlign=middle;whiteSpace=wrap;rounded=0;" vertex="1" parent="1">
          <mxGeometry x="800" y="900" width="40" height="20" as="geometry" />
        </mxCell>
        <mxCell id="qKp2t6b-wAt60eH7Q8AS-93" value="否" style="text;html=1;strokeColor=none;fillColor=none;align=center;verticalAlign=middle;whiteSpace=wrap;rounded=0;" vertex="1" parent="1">
          <mxGeometry x="990" y="900" width="40" height="20" as="geometry" />
        </mxCell>
        <mxCell id="qKp2t6b-wAt60eH7Q8AS-94" value="否" style="text;html=1;strokeColor=none;fillColor=none;align=center;verticalAlign=middle;whiteSpace=wrap;rounded=0;" vertex="1" parent="1">
          <mxGeometry x="230" y="900" width="40" height="20" as="geometry" />
        </mxCell>
        <mxCell id="qKp2t6b-wAt60eH7Q8AS-95" value="是" style="text;html=1;strokeColor=none;fillColor=none;align=center;verticalAlign=middle;whiteSpace=wrap;rounded=0;" vertex="1" parent="1">
          <mxGeometry x="340" y="960" width="40" height="20" as="geometry" />
        </mxCell>
        <mxCell id="qKp2t6b-wAt60eH7Q8AS-96" value="是" style="text;html=1;strokeColor=none;fillColor=none;align=center;verticalAlign=middle;whiteSpace=wrap;rounded=0;" vertex="1" parent="1">
          <mxGeometry x="530" y="960" width="40" height="20" as="geometry" />
        </mxCell>
        <mxCell id="qKp2t6b-wAt60eH7Q8AS-98" value="是" style="text;html=1;strokeColor=none;fillColor=none;align=center;verticalAlign=middle;whiteSpace=wrap;rounded=0;" vertex="1" parent="1">
          <mxGeometry x="720" y="960" width="40" height="20" as="geometry" />
        </mxCell>
        <mxCell id="qKp2t6b-wAt60eH7Q8AS-99" value="是" style="text;html=1;strokeColor=none;fillColor=none;align=center;verticalAlign=middle;whiteSpace=wrap;rounded=0;" vertex="1" parent="1">
          <mxGeometry x="910" y="960" width="40" height="20" as="geometry" />
        </mxCell>
      </root>
    </mxGraphModel>
  </diagram>
</mxfile>
